<svg xmlns="http://www.w3.org/2000/svg" xmlns:xlink="http://www.w3.org/1999/xlink" version="1.1" class="marks" width="1057" height="326" viewBox="0 0 1057 326"><rect width="1057" height="326" fill="white"/><g fill="none" stroke-miterlimit="10" transform="translate(46,28)"><g class="mark-group role-frame root" role="graphics-object" aria-roledescription="group mark container"><g transform="translate(0,0)"><path class="background" aria-hidden="true" d="M0,0h0v260h0Z"/><g><g class="mark-group role-scope concat_0_group" role="graphics-object" aria-roledescription="group mark container"><g transform="translate(0,0)"><path class="background" aria-hidden="true" d="M0.5,0.5h420v260h-420Z" stroke="#ddd"/><g><g class="mark-group role-axis" aria-hidden="true"><g transform="translate(0.5,260.5)"><path class="background" aria-hidden="true" d="M0,0h0v0h0Z" pointer-events="none"/><g><g class="mark-rule role-axis-grid" pointer-events="none"><line transform="translate(85,-260)" x2="0" y2="260" stroke="#ddd" stroke-width="1" opacity="1"/><line transform="translate(122,-260)" x2="0" y2="260" stroke="#ddd" stroke-width="1" opacity="1"/><line transform="translate(160,-260)" x2="0" y2="260" stroke="#ddd" stroke-width="1" opacity="1"/><line transform="translate(197,-260)" x2="0" y2="260" stroke="#ddd" stroke-width="1" opacity="1"/><line transform="translate(234,-260)" x2="0" y2="260" stroke="#ddd" stroke-width="1" opacity="1"/><line transform="translate(271,-260)" x2="0" y2="260" stroke="#ddd" stroke-width="1" opacity="1"/><line transform="translate(48,-260)" x2="0" y2="260" stroke="#ddd" stroke-width="1" opacity="1"/><line transform="translate(11,-260)" x2="0" y2="260" stroke="#ddd" stroke-width="1" opacity="1"/><line transform="translate(308,-260)" x2="0" y2="260" stroke="#ddd" stroke-width="1" opacity="1"/><line transform="translate(345,-260)" x2="0" y2="260" stroke="#ddd" stroke-width="1" opacity="1"/><line transform="translate(382,-260)" x2="0" y2="260" stroke="#ddd" stroke-width="1" opacity="1"/><line transform="translate(419,-260)" x2="0" y2="260" stroke="#ddd" stroke-width="1" opacity="1"/></g></g><path class="foreground" aria-hidden="true" d="" pointer-events="none" display="none"/></g></g><g class="mark-group role-axis" aria-hidden="true"><g transform="translate(0.5,0.5)"><path class="background" aria-hidden="true" d="M0,0h0v0h0Z" pointer-events="none"/><g><g class="mark-rule role-axis-grid" pointer-events="none"><line transform="translate(0,209)" x2="420" y2="0" stroke="#ddd" stroke-width="1" opacity="1"/><line transform="translate(0,163)" x2="420" y2="0" stroke="#ddd" stroke-width="1" opacity="1"/><line transform="translate(0,117)" x2="420" y2="0" stroke="#ddd" stroke-width="1" opacity="1"/><line transform="translate(0,72)" x2="420" y2="0" stroke="#ddd" stroke-width="1" opacity="1"/><line transform="translate(0,255)" x2="420" y2="0" stroke="#ddd" stroke-width="1" opacity="1"/><line transform="translate(0,26)" x2="420" y2="0" stroke="#ddd" stroke-width="1" opacity="1"/></g></g><path class="foreground" aria-hidden="true" d="" pointer-events="none" display="none"/></g></g><g class="mark-group role-axis" role="graphics-symbol" aria-roledescription="axis" aria-label="X-axis titled 'Timesteps (k)' for a linear scale with values from −6 to 221"><g transform="translate(0.5,260.5)"><path class="background" aria-hidden="true" d="M0,0h0v0h0Z" pointer-events="none"/><g><g class="mark-rule role-axis-tick" pointer-events="none"><line transform="translate(85,0)" x2="0" y2="5" stroke="#888" stroke-width="1" opacity="1"/><line transform="translate(122,0)" x2="0" y2="5" stroke="#888" stroke-width="1" opacity="1"/><line transform="translate(160,0)" x2="0" y2="5" stroke="#888" stroke-width="1" opacity="1"/><line transform="translate(197,0)" x2="0" y2="5" stroke="#888" stroke-width="1" opacity="1"/><line transform="translate(234,0)" x2="0" y2="5" stroke="#888" stroke-width="1" opacity="1"/><line transform="translate(271,0)" x2="0" y2="5" stroke="#888" stroke-width="1" opacity="1"/><line transform="translate(48,0)" x2="0" y2="5" stroke="#888" stroke-width="1" opacity="1"/><line transform="translate(11,0)" x2="0" y2="5" stroke="#888" stroke-width="1" opacity="1"/><line transform="translate(308,0)" x2="0" y2="5" stroke="#888" stroke-width="1" opacity="1"/><line transform="translate(345,0)" x2="0" y2="5" stroke="#888" stroke-width="1" opacity="1"/><line transform="translate(382,0)" x2="0" y2="5" stroke="#888" stroke-width="1" opacity="1"/><line transform="translate(419,0)" x2="0" y2="5" stroke="#888" stroke-width="1" opacity="1"/></g><g class="mark-text role-axis-label" pointer-events="none"><text text-anchor="middle" transform="translate(85.46139178821787,15)" font-family="sans-serif" font-size="10px" fill="#000" opacity="1">40</text><text text-anchor="middle" transform="translate(122.49154662538866,15)" font-family="sans-serif" font-size="10px" fill="#000" opacity="1">60</text><text text-anchor="middle" transform="translate(159.5217014625595,15)" font-family="sans-serif" font-size="10px" fill="#000" opacity="1">80</text><text text-anchor="middle" transform="translate(196.5518562997303,15)" font-family="sans-serif" font-size="10px" fill="#000" opacity="1">100</text><text text-anchor="middle" transform="translate(233.58201113690112,15)" font-family="sans-serif" font-size="10px" fill="#000" opacity="1">120</text><text text-anchor="middle" transform="translate(270.61216597407196,15)" font-family="sans-serif" font-size="10px" fill="#000" opacity="1">140</text><text text-anchor="middle" transform="translate(48.431236951047055,15)" font-family="sans-serif" font-size="10px" fill="#000" opacity="1">20</text><text text-anchor="middle" transform="translate(11.401082113876235,15)" font-family="sans-serif" font-size="10px" fill="#000" opacity="1">0</text><text text-anchor="middle" transform="translate(307.64232081124277,15)" font-family="sans-serif" font-size="10px" fill="#000" opacity="1">160</text><text text-anchor="middle" transform="translate(344.6724756484136,15)" font-family="sans-serif" font-size="10px" fill="#000" opacity="1">180</text><text text-anchor="middle" transform="translate(381.70263048558434,15)" font-family="sans-serif" font-size="10px" fill="#000" opacity="1">200</text><text text-anchor="middle" transform="translate(418.7327853227552,15)" font-family="sans-serif" font-size="10px" fill="#000" opacity="1">220</text></g><g class="mark-rule role-axis-domain" pointer-events="none"><line transform="translate(0,0)" x2="420" y2="0" stroke="#888" stroke-width="1" opacity="1"/></g><g class="mark-text role-axis-title" pointer-events="none"><text text-anchor="middle" transform="translate(210,30)" font-family="sans-serif" font-size="11px" font-weight="bold" fill="#000" opacity="1">Timesteps (k)</text></g></g><path class="foreground" aria-hidden="true" d="" pointer-events="none" display="none"/></g></g><g class="mark-group role-axis" role="graphics-symbol" aria-roledescription="axis" aria-label="Y-axis titled 'Lower, Upper, Return, y' for a linear scale with values from −11 to 556"><g transform="translate(0.5,0.5)"><path class="background" aria-hidden="true" d="M0,0h0v0h0Z" pointer-events="none"/><g><g class="mark-rule role-axis-tick" pointer-events="none"><line transform="translate(0,209)" x2="-5" y2="0" stroke="#888" stroke-width="1" opacity="1"/><line transform="translate(0,163)" x2="-5" y2="0" stroke="#888" stroke-width="1" opacity="1"/><line transform="translate(0,117)" x2="-5" y2="0" stroke="#888" stroke-width="1" opacity="1"/><line transform="translate(0,72)" x2="-5" y2="0" stroke="#888" stroke-width="1" opacity="1"/><line transform="translate(0,255)" x2="-5" y2="0" stroke="#888" stroke-width="1" opacity="1"/><line transform="translate(0,26)" x2="-5" y2="0" stroke="#888" stroke-width="1" opacity="1"/></g><g class="mark-text role-axis-label" pointer-events="none"><text text-anchor="end" transform="translate(-7,212.04145955211237)" font-family="sans-serif" font-size="10px" fill="#000" opacity="1">100</text><text text-anchor="end" transform="translate(-7,166.19460118228181)" font-family="sans-serif" font-size="10px" fill="#000" opacity="1">200</text><text text-anchor="end" transform="translate(-7,120.34774281245132)" font-family="sans-serif" font-size="10px" fill="#000" opacity="1">300</text><text text-anchor="end" transform="translate(-7,74.50088444262077)" font-family="sans-serif" font-size="10px" fill="#000" opacity="1">400</text><text text-anchor="end" transform="translate(-7,257.88831792194287)" font-family="sans-serif" font-size="10px" fill="#000" opacity="1">0</text><text text-anchor="end" transform="translate(-7,28.654026072790227)" font-family="sans-serif" font-size="10px" fill="#000" opacity="1">500</text></g><g class="mark-rule role-axis-domain" pointer-events="none"><line transform="translate(0,260)" x2="0" y2="-260" stroke="#888" stroke-width="1" opacity="1"/></g><g class="mark-text role-axis-title" pointer-events="none"><text text-anchor="middle" transform="translate(-28.225807189941406,130) rotate(-90) translate(0,-2)" font-family="sans-serif" font-size="11px" font-weight="bold" fill="#000" opacity="1">Lower, Upper, Return, y</text></g></g><path class="foreground" aria-hidden="true" d="" pointer-events="none" display="none"/></g></g><g class="mark-group role-scope view_d12f9cb2d3bdd431_0_pathgroup" role="graphics-object" aria-roledescription="group mark container"><g transform="translate(0,0)"><path class="background" aria-hidden="true" d="M0,0h420v260h-420Z"/><g><g class="mark-area role-mark view_d12f9cb2d3bdd431_0_marks" clip-path="url(#clip25)" role="graphics-object" aria-roledescription="area mark container"><path aria-label="Timesteps (k): 5; Lower: 122.7; Upper: 290.35; Algorithm: A2C" role="graphics-symbol" aria-roledescription="area mark" d="M20.659,198.634L29.916,158.289L39.174,165.67L48.431,145.475L57.689,161.407L66.946,136.053L76.204,179.333L85.461,171.837L94.719,172.089L103.976,162.048L113.234,180.456L122.492,188.044L131.749,186.072L141.007,188.64L150.264,216.721L159.522,219.907L168.779,179.975L178.037,192.697L187.294,178.622L196.552,107.674L205.809,36.199L215.067,79.226L224.324,25.654L233.582,25.654L242.84,25.654L252.097,25.654L261.355,25.654L270.612,25.654L279.87,25.654L289.127,25.654L298.385,25.654L307.642,25.654L316.9,25.654L326.157,25.654L335.415,25.654L344.672,25.654L353.93,25.654L363.188,25.654L372.445,25.654L381.703,25.654L381.703,25.654L372.445,25.654L363.188,25.654L353.93,25.654L344.672,25.654L335.415,25.654L326.157,25.654L316.9,25.654L307.642,25.654L298.385,25.654L289.127,25.654L279.87,25.654L270.612,25.654L261.355,25.654L252.097,25.654L242.84,25.654L233.582,25.654L224.324,25.654L215.067,25.654L205.809,25.654L196.552,25.654L187.294,25.654L178.037,25.654L168.779,25.654L159.522,29.597L150.264,68.131L141.007,32.531L131.749,25.837L122.492,25.654L113.234,25.654L103.976,25.654L94.719,25.654L85.461,25.654L76.204,37.964L66.946,34.594L57.689,59.695L48.431,89.725L39.174,66.756L29.916,91.972L20.659,121.772Z" fill="#1f77b4" opacity="0.15"/></g></g><path class="foreground" aria-hidden="true" d="" display="none"/></g><g transform="translate(0,0)"><path class="background" aria-hidden="true" d="M0,0h420v260h-420Z"/><g><g class="mark-area role-mark view_d12f9cb2d3bdd431_0_marks" clip-path="url(#clip26)" role="graphics-object" aria-roledescription="area mark container"><path aria-label="Timesteps (k): 5; Lower: 9.35; Upper: 9.7; Algorithm: DQN" role="graphics-symbol" aria-roledescription="area mark" d="M20.659,250.602L29.916,250.327L39.174,250.647L48.431,250.647L57.689,250.395L66.946,250.579L76.204,250.625L85.461,250.602L94.719,250.602L103.976,250.579L113.234,250.533L122.492,250.51L131.749,250.395L141.007,250.395L150.264,247.392L159.522,247.255L168.779,244.985L178.037,243.06L187.294,239.69L196.552,239.232L205.809,239.117L215.067,234.051L224.324,234.418L233.582,229.787L242.84,234.143L252.097,230.589L261.355,221.145L270.612,221.581L279.87,224.606L289.127,212.205L298.385,224.813L307.642,214.864L316.9,222.612L326.157,213.168L335.415,229.925L344.672,221.902L353.93,216.216L363.188,219.953L372.445,222.314L381.703,219.38L381.703,190.726L372.445,188.067L363.188,192.422L353.93,189.236L344.672,189.923L335.415,188.135L326.157,188.548L316.9,188.869L307.642,172.272L298.385,193.11L289.127,175.206L279.87,178.462L270.612,201.316L261.355,192.903L252.097,197.832L242.84,199.459L233.582,204.938L224.324,214.749L215.067,199.574L205.809,217.844L196.552,224.308L187.294,229.375L178.037,230.567L168.779,233.317L159.522,229.512L150.264,233.18L141.007,237.214L131.749,241.249L122.492,242.464L113.234,242.005L103.976,244.779L94.719,245.49L85.461,247.324L76.204,246.407L66.946,249.937L57.689,249.914L48.431,250.533L39.174,250.441L29.916,248.63L20.659,250.441Z" fill="#ff7f0e" opacity="0.15"/></g></g><path class="foreground" aria-hidden="true" d="" display="none"/></g><g transform="translate(0,0)"><path class="background" aria-hidden="true" d="M0,0h420v260h-420Z"/><g><g class="mark-area role-mark view_d12f9cb2d3bdd431_0_marks" clip-path="url(#clip27)" role="graphics-object" aria-roledescription="area mark container"><path aria-label="Timesteps (k): 5; Lower: 11.95; Upper: 78.9; Algorithm: PPO" role="graphics-symbol" aria-roledescription="area mark" d="M20.659,249.41L29.916,148.845L39.174,137.131L48.431,98.321L57.689,82.229L66.946,83.902L76.204,67.994L85.461,69.438L94.719,53.644L103.976,46.193L113.234,40.165L122.492,28.955L131.749,32.21L141.007,25.654L150.264,25.654L159.522,25.654L168.779,25.654L178.037,25.654L187.294,25.654L196.552,25.654L205.809,25.654L215.067,25.654L224.324,25.654L233.582,25.654L242.84,25.654L252.097,25.654L261.355,25.654L270.612,25.654L279.87,25.654L289.127,25.654L298.385,25.654L307.642,25.654L316.9,25.654L326.157,25.654L335.415,25.654L344.672,25.654L353.93,25.654L363.188,25.654L372.445,25.654L381.703,25.654L381.703,25.654L372.445,25.654L363.188,25.654L353.93,25.654L344.672,25.654L335.415,25.654L326.157,25.654L316.9,25.654L307.642,25.654L298.385,25.654L289.127,25.654L279.87,25.654L270.612,25.654L261.355,25.654L252.097,25.654L242.84,25.654L233.582,25.654L224.324,25.654L215.067,25.654L205.809,25.654L196.552,25.654L187.294,25.654L178.037,25.654L168.779,25.654L159.522,25.654L150.264,25.654L141.007,25.654L131.749,25.654L122.492,25.654L113.234,29.528L103.976,27.832L94.719,33.998L85.461,49.426L76.204,52.979L66.946,66.916L57.689,62.813L48.431,78.722L39.174,96.923L29.916,103.342L20.659,218.715Z" fill="#2ca02c" opacity="0.15"/></g></g><path class="foreground" aria-hidden="true" d="" display="none"/></g><g transform="translate(0,0)"><path class="background" aria-hidden="true" d="M0,0h420v260h-420Z"/><g><g class="mark-area role-mark view_d12f9cb2d3bdd431_0_marks" clip-path="url(#clip28)" role="graphics-object" aria-roledescription="area mark container"><path aria-label="Timesteps (k): 5; Lower: 9.2; Upper: 9.45; Algorithm: QR-DQN" role="graphics-symbol" aria-roledescription="area mark" d="M20.659,250.67L29.916,250.67L39.174,250.67L48.431,250.625L57.689,250.739L66.946,250.67L76.204,250.625L85.461,250.67L94.719,250.67L103.976,250.67L113.234,250.647L122.492,250.625L131.749,250.647L141.007,250.716L150.264,250.647L159.522,250.693L168.779,250.625L178.037,250.625L187.294,250.579L196.552,250.602L205.809,250.625L215.067,250.533L224.324,250.556L233.582,250.556L242.84,250.716L252.097,250.67L261.355,250.693L270.612,250.716L279.87,250.579L289.127,250.67L298.385,250.716L307.642,250.67L316.9,250.579L326.157,250.693L335.415,250.51L344.672,250.625L353.93,250.51L363.188,250.533L372.445,250.51L381.703,250.327L381.703,247.897L372.445,248.882L363.188,249.616L353.93,249.685L344.672,250.12L335.415,250.189L326.157,250.441L316.9,250.349L307.642,250.51L298.385,250.464L289.127,250.556L279.87,250.487L270.612,250.579L261.355,250.602L252.097,250.51L242.84,250.533L233.582,250.051L224.324,249.708L215.067,247.965L205.809,250.281L196.552,250.166L187.294,250.441L178.037,250.464L168.779,250.487L159.522,250.556L150.264,250.51L141.007,250.556L131.749,250.51L122.492,250.464L113.234,250.51L103.976,250.579L94.719,250.556L85.461,250.533L76.204,250.51L66.946,250.556L57.689,250.556L48.431,250.579L39.174,250.533L29.916,250.533L20.659,250.556Z" fill="#d62728" opacity="0.15"/></g></g><path class="foreground" aria-hidden="true" d="" display="none"/></g><g transform="translate(0,0)"><path class="background" aria-hidden="true" d="M0,0h420v260h-420Z"/><g><g class="mark-area role-mark view_d12f9cb2d3bdd431_0_marks" clip-path="url(#clip29)" role="graphics-object" aria-roledescription="area mark container"><path aria-label="Timesteps (k): 5; Lower: 79.3; Upper: 153.05; Algorithm: RecurrentPPO" role="graphics-symbol" aria-roledescription="area mark" d="M20.659,218.532L29.916,143.939L39.174,153.383L48.431,176.949L57.689,168.673L66.946,130.575L76.204,150.014L85.461,158.793L94.719,140.867L103.976,148.822L113.234,115.949L122.492,141.83L131.749,152.948L141.007,167.504L150.264,134.884L159.522,125.852L168.779,128.924L178.037,118.448L187.294,158.587L196.552,173.052L205.809,173.35L215.067,169.521L224.324,147.469L233.582,163.057L242.84,154.69L252.097,128.878L261.355,124.202L270.612,138.3L279.87,173.235L289.127,142.839L298.385,153.888L307.642,119.273L316.9,95.043L326.157,155.699L335.415,82.137L344.672,115.835L353.93,160.535L363.188,147.973L372.445,95.708L381.703,107.537L381.703,25.654L372.445,25.654L363.188,25.654L353.93,25.654L344.672,25.654L335.415,25.654L326.157,25.654L316.9,25.654L307.642,25.654L298.385,25.654L289.127,25.654L279.87,25.654L270.612,25.654L261.355,26.067L252.097,25.654L242.84,41.242L233.582,112.442L224.324,27.029L215.067,37.758L205.809,25.654L196.552,25.654L187.294,32.508L178.037,25.654L168.779,25.654L159.522,25.654L150.264,40.967L141.007,38.01L131.749,70.721L122.492,25.654L113.234,34.984L103.976,25.654L94.719,43.076L85.461,46.56L76.204,94.814L66.946,30.124L57.689,72.853L48.431,104.946L39.174,76.154L29.916,104.992L20.659,184.72Z" fill="#9467bd" opacity="0.15"/></g></g><path class="foreground" aria-hidden="true" d="" display="none"/></g></g><g class="mark-group role-scope concat_0_layer_1_pathgroup" role="graphics-object" aria-roledescription="group mark container"><g transform="translate(0,0)"><path class="background" aria-hidden="true" d="M0,0h420v260h-420Z"/><g><g class="mark-line role-mark concat_0_layer_1_marks" clip-path="url(#clip30)" role="graphics-object" aria-roledescription="line mark container"><path aria-label="Timesteps (k): 5; Return: 227.42; Algorithm: A2C" role="graphics-symbol" aria-roledescription="line mark" d="M20.659,150.623L29.916,124.912L39.174,124.063L48.431,111.95L57.689,109.221L66.946,93.226L76.204,108.854L85.461,112.879L94.719,110.764L103.976,89.5L113.234,109.404L122.492,119.613L131.749,115.441L141.007,125.273L150.264,136.9L159.522,143.856L168.779,119.756L178.037,118.311L187.294,99.795L196.552,77.314L205.809,56.433L215.067,59.682L224.324,51.007L233.582,47.019L242.84,46.737L252.097,43.657L261.355,44.081L270.612,50.925L279.87,58.593L289.127,59.012L298.385,39.683L307.642,47.45L316.9,42.88L326.157,44.586L335.415,39.955L344.672,35.973L353.93,41.41L363.188,41.688L372.445,41.224L381.703,41.41" stroke="#1f77b4" stroke-width="2" opacity="1"/></g></g><path class="foreground" aria-hidden="true" d="" display="none"/></g><g transform="translate(0,0)"><path class="background" aria-hidden="true" d="M0,0h420v260h-420Z"/><g><g class="mark-line role-mark concat_0_layer_1_marks" clip-path="url(#clip31)" role="graphics-object" aria-roledescription="line mark container"><path aria-label="Timesteps (k): 5; Return: 10.44; Algorithm: DQN" role="graphics-symbol" aria-roledescription="line mark" d="M20.659,250.102L29.916,249.463L39.174,250.456L48.431,250.545L57.689,250.071L66.946,250.16L76.204,246.835L85.461,246.431L94.719,246.721L103.976,245.389L113.234,244.24L122.492,244.814L131.749,241.287L141.007,240.593L150.264,239.551L159.522,236.574L168.779,238.717L178.037,234.034L187.294,230.855L196.552,221.738L205.809,221.521L215.067,211.603L224.324,221.869L233.582,210.836L242.84,215.307L252.097,210.078L261.355,196.287L270.612,195.948L279.87,196.953L289.127,196.565L298.385,210.334L307.642,188.368L316.9,201.804L326.157,201.556L335.415,209.955L344.672,205.951L353.93,206.746L363.188,206.178L372.445,208.944L381.703,204.435" stroke="#ff7f0e" stroke-width="2" opacity="1"/></g></g><path class="foreground" aria-hidden="true" d="" display="none"/></g><g transform="translate(0,0)"><path class="background" aria-hidden="true" d="M0,0h420v260h-420Z"/><g><g class="mark-line role-mark concat_0_layer_1_marks" clip-path="url(#clip32)" role="graphics-object" aria-roledescription="line mark container"><path aria-label="Timesteps (k): 5; Return: 76.4466666667; Algorithm: PPO" role="graphics-symbol" aria-roledescription="line mark" d="M20.659,219.84L29.916,129.919L39.174,126.031L48.431,87.899L57.689,75.713L66.946,77.849L76.204,61.671L85.461,60.265L94.719,43.803L103.976,37.788L113.234,35.138L122.492,29.251L131.749,30.083L141.007,26.085L150.264,25.654L159.522,25.654L168.779,25.654L178.037,25.654L187.294,25.654L196.552,25.654L205.809,25.654L215.067,25.654L224.324,25.654L233.582,25.654L242.84,25.654L252.097,25.654L261.355,25.654L270.612,25.654L279.87,25.654L289.127,25.654L298.385,25.654L307.642,25.654L316.9,25.654L326.157,25.654L335.415,25.654L344.672,25.654L353.93,25.654L363.188,25.654L372.445,25.654L381.703,25.654" stroke="#2ca02c" stroke-width="2" opacity="1"/></g></g><path class="foreground" aria-hidden="true" d="" display="none"/></g><g transform="translate(0,0)"><path class="background" aria-hidden="true" d="M0,0h420v260h-420Z"/><g><g class="mark-line role-mark concat_0_layer_1_marks" clip-path="url(#clip33)" role="graphics-object" aria-roledescription="line mark container"><path aria-label="Timesteps (k): 5; Return: 9.54666666667; Algorithm: QR-DQN" role="graphics-symbol" aria-roledescription="line mark" d="M20.659,250.511L29.916,250.597L39.174,250.588L48.431,250.582L57.689,250.637L66.946,250.609L76.204,250.582L85.461,250.591L94.719,250.606L103.976,250.618L113.234,250.585L122.492,250.536L131.749,250.591L141.007,250.622L150.264,250.57L159.522,250.628L168.779,250.539L178.037,250.331L187.294,250.515L196.552,248.873L205.809,249.665L215.067,247.275L224.324,249.87L233.582,249.958L242.84,250.622L252.097,250.612L261.355,250.579L270.612,250.628L279.87,250.45L289.127,250.576L298.385,250.298L307.642,250.453L316.9,250.142L326.157,250.392L335.415,249.915L344.672,249.781L353.93,249.102L363.188,249.261L372.445,247.77L381.703,246.067" stroke="#d62728" stroke-width="2" opacity="1"/></g></g><path class="foreground" aria-hidden="true" d="" display="none"/></g><g transform="translate(0,0)"><path class="background" aria-hidden="true" d="M0,0h420v260h-420Z"/><g><g class="mark-line role-mark concat_0_layer_1_marks" clip-path="url(#clip34)" role="graphics-object" aria-roledescription="line mark container"><path aria-label="Timesteps (k): 5; Return: 128.14; Algorithm: RecurrentPPO" role="graphics-symbol" aria-roledescription="line mark" d="M20.659,196.14L29.916,126.432L39.174,115.703L48.431,143.734L57.689,113.292L66.946,88.039L76.204,117.384L85.461,105.146L94.719,97.151L103.976,97.028L113.234,80.148L122.492,90.931L131.749,106.821L141.007,113.686L150.264,100.513L159.522,83.95L168.779,91.026L178.037,73.313L187.294,99.241L196.552,101.298L205.809,102.139L215.067,105.324L224.324,88.755L233.582,131.019L242.84,95.473L252.097,72.403L261.355,78.564L270.612,83.296L279.87,101.032L289.127,85.967L298.385,101.61L307.642,77.033L316.9,66.354L326.157,81.639L335.415,64.01L344.672,73.524L353.93,91.722L363.188,91.609L372.445,71.324L381.703,60.223" stroke="#9467bd" stroke-width="2" opacity="1"/></g></g><path class="foreground" aria-hidden="true" d="" display="none"/></g></g><g class="mark-rule role-mark concat_0_layer_2_marks" clip-path="url(#clip35)" role="graphics-object" aria-roledescription="rule mark container" pointer-events="none"><line aria-label="y: 500" role="graphics-symbol" aria-roledescription="rule mark" transform="translate(420,25.654026072790227)" x2="-420" y2="0" stroke="black" stroke-dasharray="4,4" opacity="0.6"/><line aria-label="y: 21.764" role="graphics-symbol" aria-roledescription="rule mark" transform="translate(420,244.91020766633298)" x2="-420" y2="0" stroke="black" stroke-dasharray="4,4" opacity="0.6"/></g><g class="mark-text role-mark concat_0_layer_3_marks" clip-path="url(#clip36)" role="graphics-object" aria-roledescription="text mark container" pointer-events="none"><text aria-label="y: 500; label: Max (500)" role="graphics-symbol" aria-roledescription="text mark" text-anchor="start" transform="translate(5,20.654026072790227)" font-family="sans-serif" font-size="10px" fill="black">Max (500)</text><text aria-label="y: 21.764; label: Random (22)" role="graphics-symbol" aria-roledescription="text mark" text-anchor="start" transform="translate(5,239.91020766633298)" font-family="sans-serif" font-size="10px" fill="black">Random (22)</text></g><g class="mark-group role-title"><g transform="translate(210,-17)"><path class="background" aria-hidden="true" d="M0,0h0v0h0Z" pointer-events="none"/><g><g class="mark-text role-title-text" role="graphics-symbol" aria-roledescription="title" aria-label="Title text 'CartPole-v1 — Mean ± Std'" pointer-events="none"><text text-anchor="middle" transform="translate(0,10)" font-family="sans-serif" font-size="13px" font-weight="bold" fill="#000" opacity="1">CartPole-v1 — Mean ± Std</text></g></g><path class="foreground" aria-hidden="true" d="" pointer-events="none" display="none"/></g></g></g><path class="foreground" aria-hidden="true" d="" display="none"/></g></g><g class="mark-group role-scope concat_1_group" role="graphics-object" aria-roledescription="group mark container"><g transform="translate(490,0)"><path class="background" aria-hidden="true" d="M0.5,0.5h420v260h-420Z" stroke="#ddd"/><g><g class="mark-group role-axis" aria-hidden="true"><g transform="translate(0.5,260.5)"><path class="background" aria-hidden="true" d="M0,0h0v0h0Z" pointer-events="none"/><g><g class="mark-rule role-axis-grid" pointer-events="none"><line transform="translate(85,-260)" x2="0" y2="260" stroke="#ddd" stroke-width="1" opacity="1"/><line transform="translate(122,-260)" x2="0" y2="260" stroke="#ddd" stroke-width="1" opacity="1"/><line transform="translate(160,-260)" x2="0" y2="260" stroke="#ddd" stroke-width="1" opacity="1"/><line transform="translate(197,-260)" x2="0" y2="260" stroke="#ddd" stroke-width="1" opacity="1"/><line transform="translate(234,-260)" x2="0" y2="260" stroke="#ddd" stroke-width="1" opacity="1"/><line transform="translate(271,-260)" x2="0" y2="260" stroke="#ddd" stroke-width="1" opacity="1"/><line transform="translate(48,-260)" x2="0" y2="260" stroke="#ddd" stroke-width="1" opacity="1"/><line transform="translate(11,-260)" x2="0" y2="260" stroke="#ddd" stroke-width="1" opacity="1"/><line transform="translate(308,-260)" x2="0" y2="260" stroke="#ddd" stroke-width="1" opacity="1"/><line transform="translate(345,-260)" x2="0" y2="260" stroke="#ddd" stroke-width="1" opacity="1"/><line transform="translate(382,-260)" x2="0" y2="260" stroke="#ddd" stroke-width="1" opacity="1"/><line transform="translate(419,-260)" x2="0" y2="260" stroke="#ddd" stroke-width="1" opacity="1"/></g></g><path class="foreground" aria-hidden="true" d="" pointer-events="none" display="none"/></g></g><g class="mark-group role-axis" aria-hidden="true"><g transform="translate(0.5,0.5)"><path class="background" aria-hidden="true" d="M0,0h0v0h0Z" pointer-events="none"/><g><g class="mark-rule role-axis-grid" pointer-events="none"><line transform="translate(0,209)" x2="420" y2="0" stroke="#ddd" stroke-width="1" opacity="1"/><line transform="translate(0,163)" x2="420" y2="0" stroke="#ddd" stroke-width="1" opacity="1"/><line transform="translate(0,117)" x2="420" y2="0" stroke="#ddd" stroke-width="1" opacity="1"/><line transform="translate(0,72)" x2="420" y2="0" stroke="#ddd" stroke-width="1" opacity="1"/><line transform="translate(0,255)" x2="420" y2="0" stroke="#ddd" stroke-width="1" opacity="1"/><line transform="translate(0,26)" x2="420" y2="0" stroke="#ddd" stroke-width="1" opacity="1"/></g></g><path class="foreground" aria-hidden="true" d="" pointer-events="none" display="none"/></g></g><g class="mark-group role-axis" role="graphics-symbol" aria-roledescription="axis" aria-label="X-axis titled 'Timesteps (k)' for a linear scale with values from −6 to 221"><g transform="translate(0.5,260.5)"><path class="background" aria-hidden="true" d="M0,0h0v0h0Z" pointer-events="none"/><g><g class="mark-rule role-axis-tick" pointer-events="none"><line transform="translate(85,0)" x2="0" y2="5" stroke="#888" stroke-width="1" opacity="1"/><line transform="translate(122,0)" x2="0" y2="5" stroke="#888" stroke-width="1" opacity="1"/><line transform="translate(160,0)" x2="0" y2="5" stroke="#888" stroke-width="1" opacity="1"/><line transform="translate(197,0)" x2="0" y2="5" stroke="#888" stroke-width="1" opacity="1"/><line transform="translate(234,0)" x2="0" y2="5" stroke="#888" stroke-width="1" opacity="1"/><line transform="translate(271,0)" x2="0" y2="5" stroke="#888" stroke-width="1" opacity="1"/><line transform="translate(48,0)" x2="0" y2="5" stroke="#888" stroke-width="1" opacity="1"/><line transform="translate(11,0)" x2="0" y2="5" stroke="#888" stroke-width="1" opacity="1"/><line transform="translate(308,0)" x2="0" y2="5" stroke="#888" stroke-width="1" opacity="1"/><line transform="translate(345,0)" x2="0" y2="5" stroke="#888" stroke-width="1" opacity="1"/><line transform="translate(382,0)" x2="0" y2="5" stroke="#888" stroke-width="1" opacity="1"/><line transform="translate(419,0)" x2="0" y2="5" stroke="#888" stroke-width="1" opacity="1"/></g><g class="mark-text role-axis-label" pointer-events="none"><text text-anchor="middle" transform="translate(85.46139178821787,15)" font-family="sans-serif" font-size="10px" fill="#000" opacity="1">40</text><text text-anchor="middle" transform="translate(122.49154662538866,15)" font-family="sans-serif" font-size="10px" fill="#000" opacity="1">60</text><text text-anchor="middle" transform="translate(159.5217014625595,15)" font-family="sans-serif" font-size="10px" fill="#000" opacity="1">80</text><text text-anchor="middle" transform="translate(196.5518562997303,15)" font-family="sans-serif" font-size="10px" fill="#000" opacity="1">100</text><text text-anchor="middle" transform="translate(233.58201113690112,15)" font-family="sans-serif" font-size="10px" fill="#000" opacity="1">120</text><text text-anchor="middle" transform="translate(270.61216597407196,15)" font-family="sans-serif" font-size="10px" fill="#000" opacity="1">140</text><text text-anchor="middle" transform="translate(48.431236951047055,15)" font-family="sans-serif" font-size="10px" fill="#000" opacity="1">20</text><text text-anchor="middle" transform="translate(11.401082113876235,15)" font-family="sans-serif" font-size="10px" fill="#000" opacity="1">0</text><text text-anchor="middle" transform="translate(307.64232081124277,15)" font-family="sans-serif" font-size="10px" fill="#000" opacity="1">160</text><text text-anchor="middle" transform="translate(344.6724756484136,15)" font-family="sans-serif" font-size="10px" fill="#000" opacity="1">180</text><text text-anchor="middle" transform="translate(381.70263048558434,15)" font-family="sans-serif" font-size="10px" fill="#000" opacity="1">200</text><text text-anchor="middle" transform="translate(418.7327853227552,15)" font-family="sans-serif" font-size="10px" fill="#000" opacity="1">220</text></g><g class="mark-rule role-axis-domain" pointer-events="none"><line transform="translate(0,0)" x2="420" y2="0" stroke="#888" stroke-width="1" opacity="1"/></g><g class="mark-text role-axis-title" pointer-events="none"><text text-anchor="middle" transform="translate(210,30)" font-family="sans-serif" font-size="11px" font-weight="bold" fill="#000" opacity="1">Timesteps (k)</text></g></g><path class="foreground" aria-hidden="true" d="" pointer-events="none" display="none"/></g></g><g class="mark-group role-axis" role="graphics-symbol" aria-roledescription="axis" aria-label="Y-axis titled 'Lower, Upper, Return, y' for a linear scale with values from −11 to 556"><g transform="translate(0.5,0.5)"><path class="background" aria-hidden="true" d="M0,0h0v0h0Z" pointer-events="none"/><g><g class="mark-rule role-axis-tick" pointer-events="none"><line transform="translate(0,209)" x2="-5" y2="0" stroke="#888" stroke-width="1" opacity="1"/><line transform="translate(0,163)" x2="-5" y2="0" stroke="#888" stroke-width="1" opacity="1"/><line transform="translate(0,117)" x2="-5" y2="0" stroke="#888" stroke-width="1" opacity="1"/><line transform="translate(0,72)" x2="-5" y2="0" stroke="#888" stroke-width="1" opacity="1"/><line transform="translate(0,255)" x2="-5" y2="0" stroke="#888" stroke-width="1" opacity="1"/><line transform="translate(0,26)" x2="-5" y2="0" stroke="#888" stroke-width="1" opacity="1"/></g><g class="mark-text role-axis-label" pointer-events="none"><text text-anchor="end" transform="translate(-7,212.04145955211237)" font-family="sans-serif" font-size="10px" fill="#000" opacity="1">100</text><text text-anchor="end" transform="translate(-7,166.19460118228181)" font-family="sans-serif" font-size="10px" fill="#000" opacity="1">200</text><text text-anchor="end" transform="translate(-7,120.34774281245132)" font-family="sans-serif" font-size="10px" fill="#000" opacity="1">300</text><text text-anchor="end" transform="translate(-7,74.50088444262077)" font-family="sans-serif" font-size="10px" fill="#000" opacity="1">400</text><text text-anchor="end" transform="translate(-7,257.88831792194287)" font-family="sans-serif" font-size="10px" fill="#000" opacity="1">0</text><text text-anchor="end" transform="translate(-7,28.654026072790227)" font-family="sans-serif" font-size="10px" fill="#000" opacity="1">500</text></g><g class="mark-rule role-axis-domain" pointer-events="none"><line transform="translate(0,260)" x2="0" y2="-260" stroke="#888" stroke-width="1" opacity="1"/></g><g class="mark-text role-axis-title" pointer-events="none"><text text-anchor="middle" transform="translate(-28.225807189941406,130) rotate(-90) translate(0,-2)" font-family="sans-serif" font-size="11px" font-weight="bold" fill="#000" opacity="1">Lower, Upper, Return, y</text></g></g><path class="foreground" aria-hidden="true" d="" pointer-events="none" display="none"/></g></g><g class="mark-group role-scope view_d12f9cb2d3bdd431_0_pathgroup" role="graphics-object" aria-roledescription="group mark container"><g transform="translate(0,0)"><path class="background" aria-hidden="true" d="M0,0h420v260h-420Z"/><g><g class="mark-area role-mark view_d12f9cb2d3bdd431_0_marks" clip-path="url(#clip37)" role="graphics-object" aria-roledescription="area mark container"><path aria-label="Timesteps (k): 5; Lower: 122.7; Upper: 290.35; Algorithm: A2C" role="graphics-symbol" aria-roledescription="area mark" d="M20.659,198.634L29.916,158.289L39.174,165.67L48.431,145.475L57.689,161.407L66.946,136.053L76.204,179.333L85.461,171.837L94.719,172.089L103.976,162.048L113.234,180.456L122.492,188.044L131.749,186.072L141.007,188.64L150.264,216.721L159.522,219.907L168.779,179.975L178.037,192.697L187.294,178.622L196.552,107.674L205.809,36.199L215.067,79.226L224.324,25.654L233.582,25.654L242.84,25.654L252.097,25.654L261.355,25.654L270.612,25.654L279.87,25.654L289.127,25.654L298.385,25.654L307.642,25.654L316.9,25.654L326.157,25.654L335.415,25.654L344.672,25.654L353.93,25.654L363.188,25.654L372.445,25.654L381.703,25.654L381.703,25.654L372.445,25.654L363.188,25.654L353.93,25.654L344.672,25.654L335.415,25.654L326.157,25.654L316.9,25.654L307.642,25.654L298.385,25.654L289.127,25.654L279.87,25.654L270.612,25.654L261.355,25.654L252.097,25.654L242.84,25.654L233.582,25.654L224.324,25.654L215.067,25.654L205.809,25.654L196.552,25.654L187.294,25.654L178.037,25.654L168.779,25.654L159.522,29.597L150.264,68.131L141.007,32.531L131.749,25.837L122.492,25.654L113.234,25.654L103.976,25.654L94.719,25.654L85.461,25.654L76.204,37.964L66.946,34.594L57.689,59.695L48.431,89.725L39.174,66.756L29.916,91.972L20.659,121.772Z" fill="#1f77b4" opacity="0.15"/></g></g><path class="foreground" aria-hidden="true" d="" display="none"/></g><g transform="translate(0,0)"><path class="background" aria-hidden="true" d="M0,0h420v260h-420Z"/><g><g class="mark-area role-mark view_d12f9cb2d3bdd431_0_marks" clip-path="url(#clip38)" role="graphics-object" aria-roledescription="area mark container"><path aria-label="Timesteps (k): 5; Lower: 9.35; Upper: 9.7; Algorithm: DQN" role="graphics-symbol" aria-roledescription="area mark" d="M20.659,250.602L29.916,250.327L39.174,250.647L48.431,250.647L57.689,250.395L66.946,250.579L76.204,250.625L85.461,250.602L94.719,250.602L103.976,250.579L113.234,250.533L122.492,250.51L131.749,250.395L141.007,250.395L150.264,247.392L159.522,247.255L168.779,244.985L178.037,243.06L187.294,239.69L196.552,239.232L205.809,239.117L215.067,234.051L224.324,234.418L233.582,229.787L242.84,234.143L252.097,230.589L261.355,221.145L270.612,221.581L279.87,224.606L289.127,212.205L298.385,224.813L307.642,214.864L316.9,222.612L326.157,213.168L335.415,229.925L344.672,221.902L353.93,216.216L363.188,219.953L372.445,222.314L381.703,219.38L381.703,190.726L372.445,188.067L363.188,192.422L353.93,189.236L344.672,189.923L335.415,188.135L326.157,188.548L316.9,188.869L307.642,172.272L298.385,193.11L289.127,175.206L279.87,178.462L270.612,201.316L261.355,192.903L252.097,197.832L242.84,199.459L233.582,204.938L224.324,214.749L215.067,199.574L205.809,217.844L196.552,224.308L187.294,229.375L178.037,230.567L168.779,233.317L159.522,229.512L150.264,233.18L141.007,237.214L131.749,241.249L122.492,242.464L113.234,242.005L103.976,244.779L94.719,245.49L85.461,247.324L76.204,246.407L66.946,249.937L57.689,249.914L48.431,250.533L39.174,250.441L29.916,248.63L20.659,250.441Z" fill="#ff7f0e" opacity="0.15"/></g></g><path class="foreground" aria-hidden="true" d="" display="none"/></g><g transform="translate(0,0)"><path class="background" aria-hidden="true" d="M0,0h420v260h-420Z"/><g><g class="mark-area role-mark view_d12f9cb2d3bdd431_0_marks" clip-path="url(#clip39)" role="graphics-object" aria-roledescription="area mark container"><path aria-label="Timesteps (k): 5; Lower: 11.95; Upper: 78.9; Algorithm: PPO" role="graphics-symbol" aria-roledescription="area mark" d="M20.659,249.41L29.916,148.845L39.174,137.131L48.431,98.321L57.689,82.229L66.946,83.902L76.204,67.994L85.461,69.438L94.719,53.644L103.976,46.193L113.234,40.165L122.492,28.955L131.749,32.21L141.007,25.654L150.264,25.654L159.522,25.654L168.779,25.654L178.037,25.654L187.294,25.654L196.552,25.654L205.809,25.654L215.067,25.654L224.324,25.654L233.582,25.654L242.84,25.654L252.097,25.654L261.355,25.654L270.612,25.654L279.87,25.654L289.127,25.654L298.385,25.654L307.642,25.654L316.9,25.654L326.157,25.654L335.415,25.654L344.672,25.654L353.93,25.654L363.188,25.654L372.445,25.654L381.703,25.654L381.703,25.654L372.445,25.654L363.188,25.654L353.93,25.654L344.672,25.654L335.415,25.654L326.157,25.654L316.9,25.654L307.642,25.654L298.385,25.654L289.127,25.654L279.87,25.654L270.612,25.654L261.355,25.654L252.097,25.654L242.84,25.654L233.582,25.654L224.324,25.654L215.067,25.654L205.809,25.654L196.552,25.654L187.294,25.654L178.037,25.654L168.779,25.654L159.522,25.654L150.264,25.654L141.007,25.654L131.749,25.654L122.492,25.654L113.234,29.528L103.976,27.832L94.719,33.998L85.461,49.426L76.204,52.979L66.946,66.916L57.689,62.813L48.431,78.722L39.174,96.923L29.916,103.342L20.659,218.715Z" fill="#2ca02c" opacity="0.15"/></g></g><path class="foreground" aria-hidden="true" d="" display="none"/></g><g transform="translate(0,0)"><path class="background" aria-hidden="true" d="M0,0h420v260h-420Z"/><g><g class="mark-area role-mark view_d12f9cb2d3bdd431_0_marks" clip-path="url(#clip40)" role="graphics-object" aria-roledescription="area mark container"><path aria-label="Timesteps (k): 5; Lower: 9.2; Upper: 9.45; Algorithm: QR-DQN" role="graphics-symbol" aria-roledescription="area mark" d="M20.659,250.67L29.916,250.67L39.174,250.67L48.431,250.625L57.689,250.739L66.946,250.67L76.204,250.625L85.461,250.67L94.719,250.67L103.976,250.67L113.234,250.647L122.492,250.625L131.749,250.647L141.007,250.716L150.264,250.647L159.522,250.693L168.779,250.625L178.037,250.625L187.294,250.579L196.552,250.602L205.809,250.625L215.067,250.533L224.324,250.556L233.582,250.556L242.84,250.716L252.097,250.67L261.355,250.693L270.612,250.716L279.87,250.579L289.127,250.67L298.385,250.716L307.642,250.67L316.9,250.579L326.157,250.693L335.415,250.51L344.672,250.625L353.93,250.51L363.188,250.533L372.445,250.51L381.703,250.327L381.703,247.897L372.445,248.882L363.188,249.616L353.93,249.685L344.672,250.12L335.415,250.189L326.157,250.441L316.9,250.349L307.642,250.51L298.385,250.464L289.127,250.556L279.87,250.487L270.612,250.579L261.355,250.602L252.097,250.51L242.84,250.533L233.582,250.051L224.324,249.708L215.067,247.965L205.809,250.281L196.552,250.166L187.294,250.441L178.037,250.464L168.779,250.487L159.522,250.556L150.264,250.51L141.007,250.556L131.749,250.51L122.492,250.464L113.234,250.51L103.976,250.579L94.719,250.556L85.461,250.533L76.204,250.51L66.946,250.556L57.689,250.556L48.431,250.579L39.174,250.533L29.916,250.533L20.659,250.556Z" fill="#d62728" opacity="0.15"/></g></g><path class="foreground" aria-hidden="true" d="" display="none"/></g><g transform="translate(0,0)"><path class="background" aria-hidden="true" d="M0,0h420v260h-420Z"/><g><g class="mark-area role-mark view_d12f9cb2d3bdd431_0_marks" clip-path="url(#clip41)" role="graphics-object" aria-roledescription="area mark container"><path aria-label="Timesteps (k): 5; Lower: 79.3; Upper: 153.05; Algorithm: RecurrentPPO" role="graphics-symbol" aria-roledescription="area mark" d="M20.659,218.532L29.916,143.939L39.174,153.383L48.431,176.949L57.689,168.673L66.946,130.575L76.204,150.014L85.461,158.793L94.719,140.867L103.976,148.822L113.234,115.949L122.492,141.83L131.749,152.948L141.007,167.504L150.264,134.884L159.522,125.852L168.779,128.924L178.037,118.448L187.294,158.587L196.552,173.052L205.809,173.35L215.067,169.521L224.324,147.469L233.582,163.057L242.84,154.69L252.097,128.878L261.355,124.202L270.612,138.3L279.87,173.235L289.127,142.839L298.385,153.888L307.642,119.273L316.9,95.043L326.157,155.699L335.415,82.137L344.672,115.835L353.93,160.535L363.188,147.973L372.445,95.708L381.703,107.537L381.703,25.654L372.445,25.654L363.188,25.654L353.93,25.654L344.672,25.654L335.415,25.654L326.157,25.654L316.9,25.654L307.642,25.654L298.385,25.654L289.127,25.654L279.87,25.654L270.612,25.654L261.355,26.067L252.097,25.654L242.84,41.242L233.582,112.442L224.324,27.029L215.067,37.758L205.809,25.654L196.552,25.654L187.294,32.508L178.037,25.654L168.779,25.654L159.522,25.654L150.264,40.967L141.007,38.01L131.749,70.721L122.492,25.654L113.234,34.984L103.976,25.654L94.719,43.076L85.461,46.56L76.204,94.814L66.946,30.124L57.689,72.853L48.431,104.946L39.174,76.154L29.916,104.992L20.659,184.72Z" fill="#9467bd" opacity="0.15"/></g></g><path class="foreground" aria-hidden="true" d="" display="none"/></g></g><g class="mark-group role-scope concat_1_layer_1_pathgroup" role="graphics-object" aria-roledescription="group mark container"><g transform="translate(0,0)"><path class="background" aria-hidden="true" d="M0,0h420v260h-420Z"/><g><g class="mark-line role-mark concat_1_layer_1_marks" clip-path="url(#clip42)" role="graphics-object" aria-roledescription="line mark container"><path aria-label="Timesteps (k): 5; Return: 179.4; Algorithm: A2C" role="graphics-symbol" aria-roledescription="line mark" d="M20.659,172.639L29.916,111.984L39.174,150.678L48.431,110.196L57.689,111.433L66.946,84.292L76.204,92.315L85.461,124.041L94.719,114.826L103.976,52.795L113.234,109.829L122.492,164.112L131.749,136.42L141.007,174.29L150.264,138.712L159.522,190.703L168.779,129.818L178.037,167.413L187.294,25.654L196.552,25.654L205.809,25.654L215.067,25.654L224.324,25.654L233.582,25.654L242.84,25.654L252.097,25.654L261.355,25.654L270.612,25.654L279.87,25.654L289.127,25.654L298.385,25.654L307.642,25.654L316.9,25.654L326.157,25.654L335.415,25.654L344.672,25.654L353.93,25.654L363.188,25.654L372.445,25.654L381.703,25.654" stroke="#1f77b4" stroke-width="2" opacity="1"/></g></g><path class="foreground" aria-hidden="true" d="" display="none"/></g><g transform="translate(0,0)"><path class="background" aria-hidden="true" d="M0,0h420v260h-420Z"/><g><g class="mark-line role-mark concat_1_layer_1_marks" clip-path="url(#clip43)" role="graphics-object" aria-roledescription="line mark container"><path aria-label="Timesteps (k): 5; Return: 9.5; Algorithm: DQN" role="graphics-symbol" aria-roledescription="line mark" d="M20.659,250.533L29.916,249.753L39.174,250.533L48.431,250.579L57.689,250.166L66.946,250.441L76.204,249.753L85.461,250.533L94.719,250.441L103.976,250.487L113.234,249.983L122.492,248.332L131.749,247.094L141.007,245.581L150.264,242.464L159.522,241.272L168.779,240.401L178.037,239.805L187.294,232.836L196.552,232.744L205.809,231.323L215.067,214.314L224.324,230.773L233.582,224.033L242.84,216.285L252.097,225.042L261.355,210.921L270.612,207.666L279.87,203.769L289.127,204.824L298.385,221.099L307.642,202.623L316.9,205.053L326.157,206.749L335.415,208.675L344.672,216.835L353.93,209.637L363.188,205.511L372.445,218.623L381.703,201.844" stroke="#ff7f0e" stroke-width="2" opacity="1"/></g></g><path class="foreground" aria-hidden="true" d="" display="none"/></g><g transform="translate(0,0)"><path class="background" aria-hidden="true" d="M0,0h420v260h-420Z"/><g><g class="mark-line role-mark concat_1_layer_1_marks" clip-path="url(#clip44)" role="graphics-object" aria-roledescription="line mark container"><path aria-label="Timesteps (k): 5; Return: 29; Algorithm: PPO" role="graphics-symbol" aria-roledescription="line mark" d="M20.659,241.593L29.916,127.663L39.174,133.211L48.431,89.427L57.689,68.613L66.946,77.14L76.204,59.993L85.461,65.908L94.719,40.692L103.976,33.081L113.234,35.924L122.492,25.654L131.749,25.654L141.007,25.654L150.264,25.654L159.522,25.654L168.779,25.654L178.037,25.654L187.294,25.654L196.552,25.654L205.809,25.654L215.067,25.654L224.324,25.654L233.582,25.654L242.84,25.654L252.097,25.654L261.355,25.654L270.612,25.654L279.87,25.654L289.127,25.654L298.385,25.654L307.642,25.654L316.9,25.654L326.157,25.654L335.415,25.654L344.672,25.654L353.93,25.654L363.188,25.654L372.445,25.654L381.703,25.654" stroke="#2ca02c" stroke-width="2" opacity="1"/></g></g><path class="foreground" aria-hidden="true" d="" display="none"/></g><g transform="translate(0,0)"><path class="background" aria-hidden="true" d="M0,0h420v260h-420Z"/><g><g class="mark-line role-mark concat_1_layer_1_marks" clip-path="url(#clip45)" role="graphics-object" aria-roledescription="line mark container"><path aria-label="Timesteps (k): 5; Return: 9.3; Algorithm: QR-DQN" role="graphics-symbol" aria-roledescription="line mark" d="M20.659,250.625L29.916,250.625L39.174,250.579L48.431,250.579L57.689,250.625L66.946,250.625L76.204,250.579L85.461,250.579L94.719,250.625L103.976,250.625L113.234,250.579L122.492,250.533L131.749,250.579L141.007,250.67L150.264,250.579L159.522,250.625L168.779,250.533L178.037,250.579L187.294,250.533L196.552,250.533L205.809,250.487L215.067,250.349L224.324,250.487L233.582,250.487L242.84,250.579L252.097,250.579L261.355,250.67L270.612,250.625L279.87,250.579L289.127,250.625L298.385,250.625L307.642,250.579L316.9,250.487L326.157,250.533L335.415,250.395L344.672,250.579L353.93,250.349L363.188,250.395L372.445,250.12L381.703,250.212" stroke="#d62728" stroke-width="2" opacity="1"/></g></g><path class="foreground" aria-hidden="true" d="" display="none"/></g><g transform="translate(0,0)"><path class="background" aria-hidden="true" d="M0,0h420v260h-420Z"/><g><g class="mark-line role-mark concat_1_layer_1_marks" clip-path="url(#clip46)" role="graphics-object" aria-roledescription="line mark container"><path aria-label="Timesteps (k): 5; Return: 110.2; Algorithm: RecurrentPPO" role="graphics-symbol" aria-roledescription="line mark" d="M20.659,204.365L29.916,134.815L39.174,139.171L48.431,143.343L57.689,115.56L66.946,92.866L76.204,123.216L85.461,117.623L94.719,119.869L103.976,115.926L113.234,84.063L122.492,91.949L131.749,105.519L141.007,137.337L150.264,113.451L159.522,50.503L168.779,118.631L178.037,29.047L187.294,95.754L196.552,96.808L205.809,93.507L215.067,84.751L224.324,72.418L233.582,154.438L242.84,85.943L252.097,35.786L261.355,50.411L270.612,49.678L279.87,84.888L289.127,30.56L298.385,110.287L307.642,28.313L316.9,46.01L326.157,35.97L335.415,25.654L344.672,40.829L353.93,65.816L363.188,51.649L372.445,73.885L381.703,29.689" stroke="#9467bd" stroke-width="2" opacity="1"/></g></g><path class="foreground" aria-hidden="true" d="" display="none"/></g></g><g class="mark-rule role-mark concat_1_layer_2_marks" clip-path="url(#clip47)" role="graphics-object" aria-roledescription="rule mark container" pointer-events="none"><line aria-label="y: 500" role="graphics-symbol" aria-roledescription="rule mark" transform="translate(420,25.654026072790227)" x2="-420" y2="0" stroke="black" stroke-dasharray="4,4" opacity="0.6"/><line aria-label="y: 21.764" role="graphics-symbol" aria-roledescription="rule mark" transform="translate(420,244.91020766633298)" x2="-420" y2="0" stroke="black" stroke-dasharray="4,4" opacity="0.6"/></g><g class="mark-text role-mark concat_1_layer_3_marks" clip-path="url(#clip48)" role="graphics-object" aria-roledescription="text mark container" pointer-events="none"><text aria-label="y: 500; label: Max (500)" role="graphics-symbol" aria-roledescription="text mark" text-anchor="start" transform="translate(5,20.654026072790227)" font-family="sans-serif" font-size="10px" fill="black">Max (500)</text><text aria-label="y: 21.764; label: Random (22)" role="graphics-symbol" aria-roledescription="text mark" text-anchor="start" transform="translate(5,239.91020766633298)" font-family="sans-serif" font-size="10px" fill="black">Random (22)</text></g><g class="mark-group role-title"><g transform="translate(210,-17)"><path class="background" aria-hidden="true" d="M0,0h0v0h0Z" pointer-events="none"/><g><g class="mark-text role-title-text" role="graphics-symbol" aria-roledescription="title" aria-label="Title text 'CartPole-v1 — Median + IQR'" pointer-events="none"><text text-anchor="middle" transform="translate(0,10)" font-family="sans-serif" font-size="13px" font-weight="bold" fill="#000" opacity="1">CartPole-v1 — Median + IQR</text></g></g><path class="foreground" aria-hidden="true" d="" pointer-events="none" display="none"/></g></g></g><path class="foreground" aria-hidden="true" d="" display="none"/></g></g><g class="mark-group role-legend" role="graphics-symbol" aria-roledescription="legend" aria-label="Symbol legend titled 'Algorithm' for fill color and stroke color with 5 values: A2C, DQN, PPO, QR-DQN, RecurrentPPO"><g transform="translate(937,0)"><path class="background" aria-hidden="true" d="M0,0h83v93h-83Z" pointer-events="none"/><g><g class="mark-group role-legend-entry"><g transform="translate(0,16)"><path class="background" aria-hidden="true" d="M0,0h0v0h0Z" pointer-events="none"/><g><g class="mark-group role-scope Algorithm_legend_entries" role="graphics-object" aria-roledescription="group mark container"><g transform="translate(0,0)"><path class="background" aria-hidden="true" d="M0,0h82.3548355102539v12.5h-82.3548355102539Z" opacity="1"/><g><g class="mark-symbol role-legend-symbol Algorithm_legend_symbols"><path transform="translate(6,6)" d="M5,0A5,5,0,1,1,-5,0A5,5,0,1,1,5,0" fill="#1f77b4" stroke="#1f77b4" stroke-width="1.5" opacity="0.15"/></g><g class="mark-text role-legend-label Algorithm_legend_labels"><text text-anchor="start" transform="translate(16,9)" font-family="sans-serif" font-size="10px" fill="#000" opacity="1">A2C</text></g></g><path class="foreground" aria-hidden="true" d="" display="none"/></g><g transform="translate(0,16)"><path class="background" aria-hidden="true" d="M0,0h82.3548355102539v12.5h-82.3548355102539Z" opacity="1"/><g><g class="mark-symbol role-legend-symbol Algorithm_legend_symbols"><path transform="translate(6,6)" d="M5,0A5,5,0,1,1,-5,0A5,5,0,1,1,5,0" fill="#ff7f0e" stroke="#ff7f0e" stroke-width="1.5" opacity="0.15"/></g><g class="mark-text role-legend-label Algorithm_legend_labels"><text text-anchor="start" transform="translate(16,9)" font-family="sans-serif" font-size="10px" fill="#000" opacity="1">DQN</text></g></g><path class="foreground" aria-hidden="true" d="" display="none"/></g><g transform="translate(0,32)"><path class="background" aria-hidden="true" d="M0,0h82.3548355102539v12.5h-82.3548355102539Z" opacity="1"/><g><g class="mark-symbol role-legend-symbol Algorithm_legend_symbols"><path transform="translate(6,6)" d="M5,0A5,5,0,1,1,-5,0A5,5,0,1,1,5,0" fill="#2ca02c" stroke="#2ca02c" stroke-width="1.5" opacity="0.15"/></g><g class="mark-text role-legend-label Algorithm_legend_labels"><text text-anchor="start" transform="translate(16,9)" font-family="sans-serif" font-size="10px" fill="#000" opacity="1">PPO</text></g></g><path class="foreground" aria-hidden="true" d="" display="none"/></g><g transform="translate(0,48)"><path class="background" aria-hidden="true" d="M0,0h82.3548355102539v12.5h-82.3548355102539Z" opacity="1"/><g><g class="mark-symbol role-legend-symbol Algorithm_legend_symbols"><path transform="translate(6,6)" d="M5,0A5,5,0,1,1,-5,0A5,5,0,1,1,5,0" fill="#d62728" stroke="#d62728" stroke-width="1.5" opacity="0.15"/></g><g class="mark-text role-legend-label Algorithm_legend_labels"><text text-anchor="start" transform="translate(16,9)" font-family="sans-serif" font-size="10px" fill="#000" opacity="1">QR-DQN</text></g></g><path class="foreground" aria-hidden="true" d="" display="none"/></g><g transform="translate(0,64)"><path class="background" aria-hidden="true" d="M0,0h82.3548355102539v12.5h-82.3548355102539Z" opacity="1"/><g><g class="mark-symbol role-legend-symbol Algorithm_legend_symbols"><path transform="translate(6,6)" d="M5,0A5,5,0,1,1,-5,0A5,5,0,1,1,5,0" fill="#9467bd" stroke="#9467bd" stroke-width="1.5" opacity="0.15"/></g><g class="mark-text role-legend-label Algorithm_legend_labels"><text text-anchor="start" transform="translate(16,9)" font-family="sans-serif" font-size="10px" fill="#000" opacity="1">RecurrentPPO</text></g></g><path class="foreground" aria-hidden="true" d="" display="none"/></g></g></g><path class="foreground" aria-hidden="true" d="" pointer-events="none" display="none"/></g></g><g class="mark-text role-legend-title" pointer-events="none"><text text-anchor="start" transform="translate(0,9)" font-family="sans-serif" font-size="11px" font-weight="bold" fill="#000" opacity="1">Algorithm</text></g></g><path class="foreground" aria-hidden="true" d="" pointer-events="none" display="none"/></g></g></g><path class="foreground" aria-hidden="true" d="" display="none"/></g></g></g><defs><clipPath id="clip25"><rect x="0" y="0" width="420" height="260"/></clipPath><clipPath id="clip26"><rect x="0" y="0" width="420" height="260"/></clipPath><clipPath id="clip27"><rect x="0" y="0" width="420" height="260"/></clipPath><clipPath id="clip28"><rect x="0" y="0" width="420" height="260"/></clipPath><clipPath id="clip29"><rect x="0" y="0" width="420" height="260"/></clipPath><clipPath id="clip30"><rect x="0" y="0" width="420" height="260"/></clipPath><clipPath id="clip31"><rect x="0" y="0" width="420" height="260"/></clipPath><clipPath id="clip32"><rect x="0" y="0" width="420" height="260"/></clipPath><clipPath id="clip33"><rect x="0" y="0" width="420" height="260"/></clipPath><clipPath id="clip34"><rect x="0" y="0" width="420" height="260"/></clipPath><clipPath id="clip35"><rect x="0" y="0" width="420" height="260"/></clipPath><clipPath id="clip36"><rect x="0" y="0" width="420" height="260"/></clipPath><clipPath id="clip37"><rect x="0" y="0" width="420" height="260"/></clipPath><clipPath id="clip38"><rect x="0" y="0" width="420" height="260"/></clipPath><clipPath id="clip39"><rect x="0" y="0" width="420" height="260"/></clipPath><clipPath id="clip40"><rect x="0" y="0" width="420" height="260"/></clipPath><clipPath id="clip41"><rect x="0" y="0" width="420" height="260"/></clipPath><clipPath id="clip42"><rect x="0" y="0" width="420" height="260"/></clipPath><clipPath id="clip43"><rect x="0" y="0" width="420" height="260"/></clipPath><clipPath id="clip44"><rect x="0" y="0" width="420" height="260"/></clipPath><clipPath id="clip45"><rect x="0" y="0" width="420" height="260"/></clipPath><clipPath id="clip46"><rect x="0" y="0" width="420" height="260"/></clipPath><clipPath id="clip47"><rect x="0" y="0" width="420" height="260"/></clipPath><clipPath id="clip48"><rect x="0" y="0" width="420" height="260"/></clipPath></defs></svg>